PathFileType	4	(X/Y/Z)	18_2_rein_86_p0_0-359_filt_butterworth.trc
DataRate	CameraRate	NumFrames	NumMarkers	Units	OrigDataRate	OrigDataStartFrame	OrigNumFrames
60.0	60.0	7	27	m	60.0	179	359
Frame#	Time	RHip			RKnee			RAnkle			RBigToe			RSmallToe			RHeel			LHip			LKnee			LAnkle			LBigToe			LSmallToe			LHeel			Neck			Head			Nose			RShoulder			RElbow			RWrist			RThumb			RIndex			RPinky			LShoulder			LElbow			LWrist			LThumb			LIndex			LPinky			
		X1	Y1	Z1	X2	Y2	Z2	X3	Y3	Z3	X4	Y4	Z4	X5	Y5	Z5	X6	Y6	Z6	X7	Y7	Z7	X8	Y8	Z8	X9	Y9	Z9	X10	Y10	Z10	X11	Y11	Z11	X12	Y12	Z12	X13	Y13	Z13	X14	Y14	Z14	X15	Y15	Z15	X16	Y16	Z16	X17	Y17	Z17	X18	Y18	Z18	X19	Y19	Z19	X20	Y20	Z20	X21	Y21	Z21	X22	Y22	Z22	X23	Y23	Z23	X24	Y24	Z24	X25	Y25	Z25	X26	Y26	Z26	X27	Y27	Z27	
179	2.9833333333333334	0.24706701940384265	0.41137551361754776	1.2238499675149124	0.23086991920654798	0.4916339453569142	1.6287159661405681	0.2383362123697534	0.6008995656763045	2.015913857980642	0.21781426853644648	0.42177562994366713	2.0498285690200295	0.27161028676850674	0.44255324619423536	2.05195564567483	0.22032211829973491	0.6970021518296695	2.087580941500989	0.036527899653748135	0.4221749997376857	1.216700489822963	0.03806867649052587	0.5091208511659854	1.6410876313341498	0.039615943906180014	0.5812487100472583	2.028326912989152	0.07276763267383811	0.45370080618630854	2.0647004665922255	0.008925678770939765	0.46788430901347844	2.0657453599232634	0.050026642648285435	0.6213795622777001	2.063213056758478	0.14938893018633892	0.36044759307611696	0.6921635373644318	0.16389928563551948	0.3228167510964339	0.46796061802481453	0.14952679759728574	0.20868562104089283	0.5847539482745224	0.30763344600068343	0.3234036601239474	0.765568181557326	0.37627890123625884	0.42970994187613265	1.0464403093603836	0.35401465195837584	0.39084335462336534	1.2658641293441903	0.2779424353811676	0.3061920713813616	1.3572227034500832	0.29729381936297555	0.33113570069547194	1.3921249984773407	0.3236687886985301	0.3861802342529094	1.4074899910508578	0.006595722858793802	0.34151123565099784	0.7498047272203456	-0.05614415991596805	0.37596330928954774	0.9771974054046599	0.0396865290332015	0.22081839293538674	0.8302777160791223	0.08796136730876088	0.2832638952085362	0.7678309160613612	0.12043339344574522	0.24655695177860315	0.7568011266743404	0.13570350056193506	0.19460686413412392	0.7986254218801834
180	3.0	0.24707003282628337	0.41107052571469965	1.2229443017228934	0.23101695577102627	0.49125101961149803	1.62889314266396	0.23732366793059456	0.5969026528296814	2.0142575591799354	0.21781178631474174	0.42168394479792276	2.0498920544427714	0.2716104970130467	0.44253527769712603	2.0519640838728512	0.2202131596660119	0.6969655681988116	2.0877112735872685	0.03627473580549	0.4214433144412047	1.215756090244305	0.03780014794396034	0.5094378012288726	1.642370902424963	0.03841884542101144	0.5765530406244985	2.027727633392068	0.07178775502685161	0.45369546646615333	2.0642507862380994	0.00786174249184408	0.46465649424797895	2.0654727260830628	0.05002126230554541	0.6214030629890405	2.063227950348649	0.14938026726180387	0.3604548153610143	0.6923033043663502	0.16419644248464202	0.3223866099305368	0.46808519575626556	0.15180280282522496	0.21352315916245543	0.5835225999415369	0.30758842856187774	0.32247894002175015	0.7630283979856555	0.3762899251948955	0.4294470546772643	1.046061739759038	0.35401698388410213	0.391037905177391	1.2649831620339782	0.2780261721010948	0.30285929907518505	1.3570250105177646	0.2970890163732058	0.32897094642358304	1.391305815989516	0.32402066550733294	0.3853903608017533	1.4051148910503886	0.005442347104201023	0.34082507720884514	0.7475696917824075	-0.05610822009013197	0.37554638179981736	0.9752994118576318	0.03970792746237032	0.22000361466489052	0.8278932964445371	0.08776906693954202	0.2833485205427288	0.7678699339730481	0.11983042682335904	0.25151480981681273	0.7564206164148046	0.13512385696271317	0.20236486274583082	0.7964545134882439
181	3.0166666666666666	0.24712945429256739	0.41015456680255363	1.2204224008745022	0.23143096448292771	0.4897268580512898	1.628470665899336	0.23602762147543127	0.5916724706415297	2.0120956805686845	0.21781295038570203	0.4216135837027388	2.0499561043274674	0.2717089375668164	0.4421280073262776	2.0517392295619725	0.22010054314927135	0.6971801163167474	2.087951775810453	0.03610542320143573	0.42087801708617356	1.2148386285400143	0.03767505435520835	0.5095671221495868	1.6429676001009552	0.03778889710354028	0.5729889768812501	2.0272950768864635	0.07145240813138463	0.45413839399689654	2.064843552176237	0.007120681722948892	0.46295678626982095	2.0642830830797574	0.0499848793485078	0.621420071943015	2.063226836143318	0.14936001512534994	0.36043677752128195	0.6923543460221582	0.1652316257000599	0.32207784850451643	0.4682519314216863	0.15349006319846772	0.2173458331718981	0.5825856653633972	0.307569039928975	0.32181274620296485	0.761087548420121	0.3763261695721049	0.42941836285055096	1.0461800575318583	0.35401832485401413	0.3911277296671356	1.2638528316558348	0.27810737612816927	0.3014411001967417	1.3574043929223774	0.2973212821882216	0.32828184521781695	1.3904217395462715	0.3243589166532732	0.38506758370158944	1.4029187115245811	0.0049149548093292824	0.34022701704424263	0.7462437633902894	-0.05611691230145261	0.37532101186136324	0.974380363654973	0.039634721215747196	0.2196884800309635	0.8262566249057011	0.08846063049165385	0.2836573989322202	0.7678258416241743	0.11855982532094006	0.25945785382236186	0.7565724948067856	0.13336024532272073	0.21368605958463263	0.7952119437531818
182	3.033333333333333	0.24716794953731266	0.40879914258805117	1.2167924040518379	0.2319246098695406	0.48749660766681396	1.6279770607012214	0.23507404725603007	0.5877559033270779	2.010453677304771	0.21780920351412006	0.4215677114566162	2.0499926720278387	0.27176938316457083	0.4419250531556733	2.0515997813200175	0.22006617614066284	0.6975006455880982	2.088230120121547	0.036103339805369006	0.420701597351811	1.2136444585368624	0.037640487031422296	0.509549759977471	1.6430652387671378	0.037653194845828325	0.5715841031423813	2.0271388847866847	0.07191244385739108	0.45464955460252315	2.066609281034243	0.006898003881752776	0.4621627089464303	2.061458000943077	0.04994359695714228	0.6214425647582994	2.0632207189616087	0.14933120360504745	0.3604199120599451	0.6920126542383429	0.16675778683134856	0.321962369724307	0.4684240610331313	0.15421863982879166	0.2187439620689846	0.5822024057598714	0.3075822200062012	0.3215851641441438	0.7602912823806662	0.3763276594155462	0.42945153981079465	1.0462678424484448	0.3540057522111699	0.3914093352321857	1.2626262757583766	0.278161600046695	0.301462763174568	1.3573864154914685	0.29766690259450845	0.32816618177034274	1.3882335153755707	0.324636482917807	0.38495566240788953	1.400834884053622	0.004835876706610979	0.3400256854900775	0.7459019047436679	-0.056163378950803276	0.37527909796302705	0.9741362085030137	0.039582073780745526	0.21966667395536763	0.8255203485749582	0.08894302489493724	0.2836143310671407	0.7672953825339722	0.11696128589389544	0.2661961716626206	0.7565431674261678	0.1311224140424183	0.22327593414764935	0.7944692938594962
183	3.05	0.24711331375500778	0.4074630703253616	1.213581489836185	0.2321562433734115	0.4858252470107556	1.626983839919527	0.23472140541134195	0.5862580605006347	2.0097819397916514	0.2177906023887055	0.42154179904857325	2.0499906663300185	0.27178189695906413	0.4419544439717713	2.0515873070400636	0.22012482259544067	0.6978914527506749	2.088442178073101	0.036156493268036966	0.42095424061816383	1.212039760578072	0.03762989007604989	0.5094535313719492	1.642939985675858	0.03771873816517646	0.5715873081075282	2.027150420798713	0.0725256311881717	0.4548939654588354	2.068795729654767	0.006960790691095176	0.46043334896286403	2.0576653150948774	0.04992019980908029	0.6214739245146021	2.063230473660177	0.14932062371904056	0.36039890027155447	0.6910907324219339	0.16805988199874744	0.3220487525792343	0.4685204459052421	0.15467319687757008	0.21752688614081198	0.5820680721493592	0.307609376205629	0.32161382890037665	0.76022743533379	0.37628017465771374	0.4294626834067252	1.0457259808220114	0.353994480152682	0.3919383639405058	1.2618791901631623	0.2781879750305114	0.3020559189450104	1.356466688152971	0.29792784378401216	0.32822171819189805	1.3858559637635202	0.32480761950783893	0.38491654097058736	1.3995212445719765	0.004906576043484476	0.340186443701192	0.7459240751382663	-0.05621822272392793	0.3753461581829245	0.9741557685803746	0.03953530281977777	0.21980197735969148	0.8249052289062494	0.08861961377658467	0.2827834244986233	0.7655686771505303	0.11538339194798528	0.26965830338193036	0.7558355571296758	0.12922017874290523	0.22831111247733016	0.7933734769237956
184	3.066666666666667	0.246951928754223	0.40674990050608373	1.211939764172695	0.23210204088376596	0.48482899196944024	1.6244279982951075	0.23472265007925913	0.586232263168656	2.009726273928878	0.21776214077596512	0.42153254390608175	2.0499743980063063	0.27177159505308535	0.44204313918214144	2.0516230391642396	0.22020739785562135	0.6981999517126151	2.0883746025069376	0.036147832302382346	0.4214621413474726	1.2104672220422221	0.03762536381453394	0.5093478946287537	1.642719140679157	0.03779404612463221	0.5719529589371567	2.0271923049327976	0.07282505598590916	0.4548456867878651	2.070341263976766	0.007044687532038468	0.4580580156352684	2.0549544506523203	0.04991527405463282	0.6214894074689635	2.063252108862092	0.14935678545674191	0.3603289084959516	0.6898713868164025	0.168646017339261	0.3223334974020907	0.4684123146684981	0.15559008911444547	0.2139694601372211	0.5816645675385903	0.307638421371208	0.3216800516642914	0.7603332239174496	0.37618928949692965	0.4294560636379051	1.044135205765994	0.3540093585150492	0.39245574958446017	1.2617598646056778	0.27819732534009867	0.30267192357174677	1.355078080070122	0.2980910411060431	0.32840171913082933	1.3846473706329043	0.3248638170092596	0.3849371664407717	1.3991062987270877	0.0049889626632116674	0.34037211361782993	0.7456149967619016	-0.05625219059835566	0.3755069762383701	0.9742131486470288	0.03944867537826786	0.2199813961367958	0.8235891794564811	0.08743650846797413	0.28107325396952737	0.7624551950131064	0.11376420076468396	0.2705041362967576	0.7542108406530269	0.12762555593795655	0.2295453222646152	0.7916164706424829
185	3.083333333333333	0.24674033918433239	0.4077746218575054	1.2118033613882309	0.23190501941862285	0.48398865990581486	1.6214305017823902	0.23475979779849238	0.5864098347453862	2.0098031425989604	0.21774218154272332	0.42152752708617164	2.0499652866684492	0.2717587243155205	0.44207098147855606	2.0516372761156094	0.22013313043846644	0.6977812230953138	2.087567122736688	0.03609333223698204	0.4219083173219948	1.209473662348011	0.03763060510858619	0.5092947927638095	1.64248063435677	0.03782614312801173	0.5721793568828717	2.02719932233634	0.07285871276911894	0.4546939314403067	2.0709104773213562	0.007037637682705544	0.456458420637414	2.0547069509568443	0.04991808052193342	0.6214329624819513	2.0632537137372435	0.14941857082436244	0.3601829981361673	0.6889378583920287	0.1683532853210938	0.3225056206309909	0.4679432840502678	0.15690782435194323	0.209388703424019	0.5807028230916604	0.30767254947564715	0.321711376412979	0.7603586281676427	0.3760712116510834	0.4294087298920663	1.0416389508837716	0.3540499769031121	0.392763639528858	1.2619229690716798	0.2781967687110171	0.3030591517248272	1.3542125382140504	0.2982507420794005	0.32882639761639165	1.38442871207119	0.3248328812891186	0.38492729814945403	1.3990173986866579	0.005085797388509208	0.33987393609260963	0.7446312791272989	-0.056255634246198505	0.3757874228960745	0.9742729553593076	0.0393198749511647	0.2200809373298569	0.821651943868432	0.08594864854681482	0.27910769851233985	0.7590161324657534	0.11211572545482487	0.2700193324483302	0.7518650514889735	0.12604312404018564	0.22920032130661544	0.7896048233153219
